<mxfile host="app.diagrams.net" agent="Mozilla/5.0 (Windows NT 10.0; Win64; x64) AppleWebKit/537.36 (KHTML, like Gecko) Chrome/128.0.0.0 Safari/537.36" version="24.7.12">
  <diagram name="Page-1" id="0X-eT6srL4ad6cFD6U-O">
    <mxGraphModel dx="2620" dy="1173" grid="1" gridSize="10" guides="1" tooltips="1" connect="1" arrows="1" fold="1" page="0" pageScale="1" pageWidth="827" pageHeight="1169" math="0" shadow="0">
      <root>
        <mxCell id="0" />
        <mxCell id="1" parent="0" />
        <mxCell id="S9tJWIZ2xEN-GUF81i5g-2" value="Assets" style="childLayout=tableLayout;recursiveResize=0;strokeColor=#98bf21;fillColor=#A7C942;shadow=1;" parent="1" vertex="1">
          <mxGeometry x="320" y="110" width="450" height="302" as="geometry" />
        </mxCell>
        <mxCell id="S9tJWIZ2xEN-GUF81i5g-3" style="shape=tableRow;horizontal=0;startSize=0;swimlaneHead=0;swimlaneBody=0;top=0;left=0;bottom=0;right=0;dropTarget=0;collapsible=0;recursiveResize=0;expand=0;fontStyle=0;strokeColor=inherit;fillColor=#ffffff;" parent="S9tJWIZ2xEN-GUF81i5g-2" vertex="1">
          <mxGeometry width="450" height="35" as="geometry" />
        </mxCell>
        <mxCell id="S9tJWIZ2xEN-GUF81i5g-23" style="connectable=0;recursiveResize=0;align=center;fontStyle=1;html=1;strokeColor=#ffffff;" parent="S9tJWIZ2xEN-GUF81i5g-3" vertex="1">
          <mxGeometry width="100" height="35" as="geometry">
            <mxRectangle width="100" height="35" as="alternateBounds" />
          </mxGeometry>
        </mxCell>
        <mxCell id="S9tJWIZ2xEN-GUF81i5g-4" value="Parameter values" style="connectable=0;recursiveResize=0;strokeColor=inherit;fillColor=#A7C942;align=center;fontStyle=1;fontColor=#FFFFFF;html=1;rowspan=1;colspan=4;" parent="S9tJWIZ2xEN-GUF81i5g-3" vertex="1">
          <mxGeometry x="100" width="350" height="35" as="geometry">
            <mxRectangle width="90" height="35" as="alternateBounds" />
          </mxGeometry>
        </mxCell>
        <mxCell id="S9tJWIZ2xEN-GUF81i5g-5" value="Title 2" style="connectable=0;recursiveResize=0;strokeColor=inherit;fillColor=#A7C942;align=center;fontStyle=1;fontColor=#FFFFFF;html=1;" parent="S9tJWIZ2xEN-GUF81i5g-3" vertex="1" visible="0">
          <mxGeometry x="190" width="91" height="35" as="geometry">
            <mxRectangle width="91" height="35" as="alternateBounds" />
          </mxGeometry>
        </mxCell>
        <mxCell id="S9tJWIZ2xEN-GUF81i5g-6" value="Title 3" style="connectable=0;recursiveResize=0;strokeColor=inherit;fillColor=#A7C942;align=center;fontStyle=1;fontColor=#FFFFFF;html=1;" parent="S9tJWIZ2xEN-GUF81i5g-3" vertex="1" visible="0">
          <mxGeometry x="281" width="90" height="35" as="geometry">
            <mxRectangle width="90" height="35" as="alternateBounds" />
          </mxGeometry>
        </mxCell>
        <mxCell id="S9tJWIZ2xEN-GUF81i5g-28" style="connectable=0;recursiveResize=0;strokeColor=inherit;fillColor=#A7C942;align=center;fontStyle=1;fontColor=#FFFFFF;html=1;" parent="S9tJWIZ2xEN-GUF81i5g-3" vertex="1" visible="0">
          <mxGeometry x="371" width="79" height="35" as="geometry">
            <mxRectangle width="79" height="35" as="alternateBounds" />
          </mxGeometry>
        </mxCell>
        <mxCell id="S9tJWIZ2xEN-GUF81i5g-7" value="" style="shape=tableRow;horizontal=0;startSize=0;swimlaneHead=0;swimlaneBody=0;top=0;left=0;bottom=0;right=0;dropTarget=0;collapsible=0;recursiveResize=0;expand=0;fontStyle=0;strokeColor=inherit;fillColor=#ffffff;" parent="S9tJWIZ2xEN-GUF81i5g-2" vertex="1">
          <mxGeometry y="35" width="450" height="36" as="geometry" />
        </mxCell>
        <mxCell id="S9tJWIZ2xEN-GUF81i5g-24" value="Type of data" style="connectable=0;recursiveResize=0;strokeColor=inherit;fillColor=inherit;align=center;whiteSpace=wrap;html=1;" parent="S9tJWIZ2xEN-GUF81i5g-7" vertex="1">
          <mxGeometry width="100" height="36" as="geometry">
            <mxRectangle width="100" height="36" as="alternateBounds" />
          </mxGeometry>
        </mxCell>
        <mxCell id="S9tJWIZ2xEN-GUF81i5g-8" value="Stock index" style="connectable=0;recursiveResize=0;strokeColor=inherit;fillColor=inherit;align=center;whiteSpace=wrap;html=1;" parent="S9tJWIZ2xEN-GUF81i5g-7" vertex="1">
          <mxGeometry x="100" width="90" height="36" as="geometry">
            <mxRectangle width="90" height="36" as="alternateBounds" />
          </mxGeometry>
        </mxCell>
        <mxCell id="S9tJWIZ2xEN-GUF81i5g-9" value="Commodity" style="connectable=0;recursiveResize=0;strokeColor=inherit;fillColor=inherit;align=center;whiteSpace=wrap;html=1;" parent="S9tJWIZ2xEN-GUF81i5g-7" vertex="1">
          <mxGeometry x="190" width="91" height="36" as="geometry">
            <mxRectangle width="91" height="36" as="alternateBounds" />
          </mxGeometry>
        </mxCell>
        <mxCell id="S9tJWIZ2xEN-GUF81i5g-10" value="Exchange rate" style="connectable=0;recursiveResize=0;strokeColor=inherit;fillColor=inherit;align=center;whiteSpace=wrap;html=1;" parent="S9tJWIZ2xEN-GUF81i5g-7" vertex="1">
          <mxGeometry x="281" width="90" height="36" as="geometry">
            <mxRectangle width="90" height="36" as="alternateBounds" />
          </mxGeometry>
        </mxCell>
        <mxCell id="S9tJWIZ2xEN-GUF81i5g-29" value="CHAPS" style="connectable=0;recursiveResize=0;strokeColor=inherit;fillColor=inherit;align=center;whiteSpace=wrap;html=1;" parent="S9tJWIZ2xEN-GUF81i5g-7" vertex="1">
          <mxGeometry x="371" width="79" height="36" as="geometry">
            <mxRectangle width="79" height="36" as="alternateBounds" />
          </mxGeometry>
        </mxCell>
        <mxCell id="S9tJWIZ2xEN-GUF81i5g-11" value="" style="shape=tableRow;horizontal=0;startSize=0;swimlaneHead=0;swimlaneBody=0;top=0;left=0;bottom=0;right=0;dropTarget=0;collapsible=0;recursiveResize=0;expand=0;fontStyle=1;strokeColor=inherit;fillColor=#EAF2D3;" parent="S9tJWIZ2xEN-GUF81i5g-2" vertex="1">
          <mxGeometry y="71" width="450" height="32" as="geometry" />
        </mxCell>
        <mxCell id="S9tJWIZ2xEN-GUF81i5g-25" value="Frequency of data" style="connectable=0;recursiveResize=0;strokeColor=inherit;fillColor=inherit;whiteSpace=wrap;html=1;" parent="S9tJWIZ2xEN-GUF81i5g-11" vertex="1">
          <mxGeometry width="100" height="32" as="geometry">
            <mxRectangle width="100" height="32" as="alternateBounds" />
          </mxGeometry>
        </mxCell>
        <mxCell id="S9tJWIZ2xEN-GUF81i5g-12" value="Daily" style="connectable=0;recursiveResize=0;strokeColor=inherit;fillColor=inherit;whiteSpace=wrap;html=1;" parent="S9tJWIZ2xEN-GUF81i5g-11" vertex="1">
          <mxGeometry x="100" width="90" height="32" as="geometry">
            <mxRectangle width="90" height="32" as="alternateBounds" />
          </mxGeometry>
        </mxCell>
        <mxCell id="S9tJWIZ2xEN-GUF81i5g-13" value="Weekly" style="connectable=0;recursiveResize=0;strokeColor=inherit;fillColor=inherit;whiteSpace=wrap;html=1;" parent="S9tJWIZ2xEN-GUF81i5g-11" vertex="1">
          <mxGeometry x="190" width="91" height="32" as="geometry">
            <mxRectangle width="91" height="32" as="alternateBounds" />
          </mxGeometry>
        </mxCell>
        <mxCell id="S9tJWIZ2xEN-GUF81i5g-14" value="Monthly" style="connectable=0;recursiveResize=0;strokeColor=inherit;fillColor=inherit;whiteSpace=wrap;html=1;" parent="S9tJWIZ2xEN-GUF81i5g-11" vertex="1">
          <mxGeometry x="281" width="90" height="32" as="geometry">
            <mxRectangle width="90" height="32" as="alternateBounds" />
          </mxGeometry>
        </mxCell>
        <mxCell id="S9tJWIZ2xEN-GUF81i5g-30" style="connectable=0;recursiveResize=0;strokeColor=inherit;fillColor=inherit;whiteSpace=wrap;html=1;" parent="S9tJWIZ2xEN-GUF81i5g-11" vertex="1">
          <mxGeometry x="371" width="79" height="32" as="geometry">
            <mxRectangle width="79" height="32" as="alternateBounds" />
          </mxGeometry>
        </mxCell>
        <mxCell id="S9tJWIZ2xEN-GUF81i5g-15" value="" style="shape=tableRow;horizontal=0;startSize=0;swimlaneHead=0;swimlaneBody=0;top=0;left=0;bottom=0;right=0;dropTarget=0;collapsible=0;recursiveResize=0;expand=0;fontStyle=0;strokeColor=inherit;fillColor=#ffffff;" parent="S9tJWIZ2xEN-GUF81i5g-2" vertex="1">
          <mxGeometry y="103" width="450" height="36" as="geometry" />
        </mxCell>
        <mxCell id="S9tJWIZ2xEN-GUF81i5g-26" value="Context Length" style="connectable=0;recursiveResize=0;strokeColor=inherit;fillColor=inherit;fontStyle=0;align=center;whiteSpace=wrap;html=1;" parent="S9tJWIZ2xEN-GUF81i5g-15" vertex="1">
          <mxGeometry width="100" height="36" as="geometry">
            <mxRectangle width="100" height="36" as="alternateBounds" />
          </mxGeometry>
        </mxCell>
        <mxCell id="S9tJWIZ2xEN-GUF81i5g-16" value="32" style="connectable=0;recursiveResize=0;strokeColor=inherit;fillColor=inherit;fontStyle=0;align=center;whiteSpace=wrap;html=1;" parent="S9tJWIZ2xEN-GUF81i5g-15" vertex="1">
          <mxGeometry x="100" width="90" height="36" as="geometry">
            <mxRectangle width="90" height="36" as="alternateBounds" />
          </mxGeometry>
        </mxCell>
        <mxCell id="S9tJWIZ2xEN-GUF81i5g-17" value="64" style="connectable=0;recursiveResize=0;strokeColor=inherit;fillColor=inherit;fontStyle=0;align=center;whiteSpace=wrap;html=1;" parent="S9tJWIZ2xEN-GUF81i5g-15" vertex="1">
          <mxGeometry x="190" width="91" height="36" as="geometry">
            <mxRectangle width="91" height="36" as="alternateBounds" />
          </mxGeometry>
        </mxCell>
        <mxCell id="S9tJWIZ2xEN-GUF81i5g-18" value="128" style="connectable=0;recursiveResize=0;strokeColor=inherit;fillColor=inherit;fontStyle=0;align=center;whiteSpace=wrap;html=1;" parent="S9tJWIZ2xEN-GUF81i5g-15" vertex="1">
          <mxGeometry x="281" width="90" height="36" as="geometry">
            <mxRectangle width="90" height="36" as="alternateBounds" />
          </mxGeometry>
        </mxCell>
        <mxCell id="S9tJWIZ2xEN-GUF81i5g-31" style="connectable=0;recursiveResize=0;strokeColor=inherit;fillColor=inherit;fontStyle=0;align=center;whiteSpace=wrap;html=1;" parent="S9tJWIZ2xEN-GUF81i5g-15" vertex="1">
          <mxGeometry x="371" width="79" height="36" as="geometry">
            <mxRectangle width="79" height="36" as="alternateBounds" />
          </mxGeometry>
        </mxCell>
        <mxCell id="S9tJWIZ2xEN-GUF81i5g-19" value="" style="shape=tableRow;horizontal=0;startSize=0;swimlaneHead=0;swimlaneBody=0;top=0;left=0;bottom=0;right=0;dropTarget=0;collapsible=0;recursiveResize=0;expand=0;fontStyle=1;strokeColor=inherit;fillColor=#EAF2D3;" parent="S9tJWIZ2xEN-GUF81i5g-2" vertex="1">
          <mxGeometry y="139" width="450" height="33" as="geometry" />
        </mxCell>
        <mxCell id="S9tJWIZ2xEN-GUF81i5g-27" value="Fine-tuning length" style="connectable=0;recursiveResize=0;strokeColor=inherit;fillColor=inherit;whiteSpace=wrap;html=1;" parent="S9tJWIZ2xEN-GUF81i5g-19" vertex="1">
          <mxGeometry width="100" height="33" as="geometry">
            <mxRectangle width="100" height="33" as="alternateBounds" />
          </mxGeometry>
        </mxCell>
        <mxCell id="S9tJWIZ2xEN-GUF81i5g-20" value="200" style="connectable=0;recursiveResize=0;strokeColor=inherit;fillColor=inherit;whiteSpace=wrap;html=1;" parent="S9tJWIZ2xEN-GUF81i5g-19" vertex="1">
          <mxGeometry x="100" width="90" height="33" as="geometry">
            <mxRectangle width="90" height="33" as="alternateBounds" />
          </mxGeometry>
        </mxCell>
        <mxCell id="S9tJWIZ2xEN-GUF81i5g-21" value="" style="connectable=0;recursiveResize=0;strokeColor=inherit;fillColor=inherit;whiteSpace=wrap;html=1;" parent="S9tJWIZ2xEN-GUF81i5g-19" vertex="1">
          <mxGeometry x="190" width="91" height="33" as="geometry">
            <mxRectangle width="91" height="33" as="alternateBounds" />
          </mxGeometry>
        </mxCell>
        <mxCell id="S9tJWIZ2xEN-GUF81i5g-22" value="" style="connectable=0;recursiveResize=0;strokeColor=inherit;fillColor=inherit;whiteSpace=wrap;html=1;" parent="S9tJWIZ2xEN-GUF81i5g-19" vertex="1">
          <mxGeometry x="281" width="90" height="33" as="geometry">
            <mxRectangle width="90" height="33" as="alternateBounds" />
          </mxGeometry>
        </mxCell>
        <mxCell id="S9tJWIZ2xEN-GUF81i5g-32" style="connectable=0;recursiveResize=0;strokeColor=inherit;fillColor=inherit;whiteSpace=wrap;html=1;" parent="S9tJWIZ2xEN-GUF81i5g-19" vertex="1">
          <mxGeometry x="371" width="79" height="33" as="geometry">
            <mxRectangle width="79" height="33" as="alternateBounds" />
          </mxGeometry>
        </mxCell>
        <mxCell id="S9tJWIZ2xEN-GUF81i5g-45" style="shape=tableRow;horizontal=0;startSize=0;swimlaneHead=0;swimlaneBody=0;top=0;left=0;bottom=0;right=0;dropTarget=0;collapsible=0;recursiveResize=0;expand=0;fontStyle=1;strokeColor=inherit;fillColor=#EAF2D3;" parent="S9tJWIZ2xEN-GUF81i5g-2" vertex="1">
          <mxGeometry y="172" width="450" height="32" as="geometry" />
        </mxCell>
        <mxCell id="S9tJWIZ2xEN-GUF81i5g-46" value="Batch size" style="connectable=0;recursiveResize=0;strokeColor=inherit;fillColor=#f5f5f5;whiteSpace=wrap;html=1;fontColor=#333333;" parent="S9tJWIZ2xEN-GUF81i5g-45" vertex="1">
          <mxGeometry width="100" height="32" as="geometry">
            <mxRectangle width="100" height="32" as="alternateBounds" />
          </mxGeometry>
        </mxCell>
        <mxCell id="S9tJWIZ2xEN-GUF81i5g-47" value="5" style="connectable=0;recursiveResize=0;strokeColor=inherit;fillColor=#f5f5f5;whiteSpace=wrap;html=1;fontColor=#333333;" parent="S9tJWIZ2xEN-GUF81i5g-45" vertex="1">
          <mxGeometry x="100" width="90" height="32" as="geometry">
            <mxRectangle width="90" height="32" as="alternateBounds" />
          </mxGeometry>
        </mxCell>
        <mxCell id="S9tJWIZ2xEN-GUF81i5g-48" value="" style="connectable=0;recursiveResize=0;strokeColor=inherit;fillColor=#f5f5f5;whiteSpace=wrap;html=1;fontColor=#333333;" parent="S9tJWIZ2xEN-GUF81i5g-45" vertex="1">
          <mxGeometry x="190" width="91" height="32" as="geometry">
            <mxRectangle width="91" height="32" as="alternateBounds" />
          </mxGeometry>
        </mxCell>
        <mxCell id="S9tJWIZ2xEN-GUF81i5g-49" value="" style="connectable=0;recursiveResize=0;strokeColor=inherit;fillColor=#f5f5f5;whiteSpace=wrap;html=1;fontColor=#333333;" parent="S9tJWIZ2xEN-GUF81i5g-45" vertex="1">
          <mxGeometry x="281" width="90" height="32" as="geometry">
            <mxRectangle width="90" height="32" as="alternateBounds" />
          </mxGeometry>
        </mxCell>
        <mxCell id="S9tJWIZ2xEN-GUF81i5g-50" style="connectable=0;recursiveResize=0;strokeColor=inherit;fillColor=#f5f5f5;whiteSpace=wrap;html=1;fontColor=#333333;" parent="S9tJWIZ2xEN-GUF81i5g-45" vertex="1">
          <mxGeometry x="371" width="79" height="32" as="geometry">
            <mxRectangle width="79" height="32" as="alternateBounds" />
          </mxGeometry>
        </mxCell>
        <mxCell id="S9tJWIZ2xEN-GUF81i5g-39" style="shape=tableRow;horizontal=0;startSize=0;swimlaneHead=0;swimlaneBody=0;top=0;left=0;bottom=0;right=0;dropTarget=0;collapsible=0;recursiveResize=0;expand=0;fontStyle=1;strokeColor=inherit;fillColor=#EAF2D3;" parent="S9tJWIZ2xEN-GUF81i5g-2" vertex="1">
          <mxGeometry y="204" width="450" height="34" as="geometry" />
        </mxCell>
        <mxCell id="S9tJWIZ2xEN-GUF81i5g-40" value="Max epochs" style="connectable=0;recursiveResize=0;strokeColor=inherit;fillColor=inherit;whiteSpace=wrap;html=1;" parent="S9tJWIZ2xEN-GUF81i5g-39" vertex="1">
          <mxGeometry width="100" height="34" as="geometry">
            <mxRectangle width="100" height="34" as="alternateBounds" />
          </mxGeometry>
        </mxCell>
        <mxCell id="S9tJWIZ2xEN-GUF81i5g-41" value="4" style="connectable=0;recursiveResize=0;strokeColor=inherit;fillColor=inherit;whiteSpace=wrap;html=1;" parent="S9tJWIZ2xEN-GUF81i5g-39" vertex="1">
          <mxGeometry x="100" width="90" height="34" as="geometry">
            <mxRectangle width="90" height="34" as="alternateBounds" />
          </mxGeometry>
        </mxCell>
        <mxCell id="S9tJWIZ2xEN-GUF81i5g-42" value="" style="connectable=0;recursiveResize=0;strokeColor=inherit;fillColor=inherit;whiteSpace=wrap;html=1;" parent="S9tJWIZ2xEN-GUF81i5g-39" vertex="1">
          <mxGeometry x="190" width="91" height="34" as="geometry">
            <mxRectangle width="91" height="34" as="alternateBounds" />
          </mxGeometry>
        </mxCell>
        <mxCell id="S9tJWIZ2xEN-GUF81i5g-43" value="" style="connectable=0;recursiveResize=0;strokeColor=inherit;fillColor=inherit;whiteSpace=wrap;html=1;" parent="S9tJWIZ2xEN-GUF81i5g-39" vertex="1">
          <mxGeometry x="281" width="90" height="34" as="geometry">
            <mxRectangle width="90" height="34" as="alternateBounds" />
          </mxGeometry>
        </mxCell>
        <mxCell id="S9tJWIZ2xEN-GUF81i5g-44" style="connectable=0;recursiveResize=0;strokeColor=inherit;fillColor=inherit;whiteSpace=wrap;html=1;" parent="S9tJWIZ2xEN-GUF81i5g-39" vertex="1">
          <mxGeometry x="371" width="79" height="34" as="geometry">
            <mxRectangle width="79" height="34" as="alternateBounds" />
          </mxGeometry>
        </mxCell>
        <mxCell id="S9tJWIZ2xEN-GUF81i5g-33" style="shape=tableRow;horizontal=0;startSize=0;swimlaneHead=0;swimlaneBody=0;top=0;left=0;bottom=0;right=0;dropTarget=0;collapsible=0;recursiveResize=0;expand=0;fontStyle=1;strokeColor=inherit;fillColor=#EAF2D3;" parent="S9tJWIZ2xEN-GUF81i5g-2" vertex="1">
          <mxGeometry y="238" width="450" height="32" as="geometry" />
        </mxCell>
        <mxCell id="S9tJWIZ2xEN-GUF81i5g-34" value="Learning rate" style="connectable=0;recursiveResize=0;whiteSpace=wrap;html=1;strokeColor=inherit;" parent="S9tJWIZ2xEN-GUF81i5g-33" vertex="1">
          <mxGeometry width="100" height="32" as="geometry">
            <mxRectangle width="100" height="32" as="alternateBounds" />
          </mxGeometry>
        </mxCell>
        <mxCell id="S9tJWIZ2xEN-GUF81i5g-35" value="5e-4" style="connectable=0;recursiveResize=0;whiteSpace=wrap;html=1;strokeColor=inherit;" parent="S9tJWIZ2xEN-GUF81i5g-33" vertex="1">
          <mxGeometry x="100" width="90" height="32" as="geometry">
            <mxRectangle width="90" height="32" as="alternateBounds" />
          </mxGeometry>
        </mxCell>
        <mxCell id="S9tJWIZ2xEN-GUF81i5g-36" value="" style="connectable=0;recursiveResize=0;whiteSpace=wrap;html=1;strokeColor=inherit;" parent="S9tJWIZ2xEN-GUF81i5g-33" vertex="1">
          <mxGeometry x="190" width="91" height="32" as="geometry">
            <mxRectangle width="91" height="32" as="alternateBounds" />
          </mxGeometry>
        </mxCell>
        <mxCell id="S9tJWIZ2xEN-GUF81i5g-37" value="" style="connectable=0;recursiveResize=0;whiteSpace=wrap;html=1;strokeColor=inherit;" parent="S9tJWIZ2xEN-GUF81i5g-33" vertex="1">
          <mxGeometry x="281" width="90" height="32" as="geometry">
            <mxRectangle width="90" height="32" as="alternateBounds" />
          </mxGeometry>
        </mxCell>
        <mxCell id="S9tJWIZ2xEN-GUF81i5g-38" style="connectable=0;recursiveResize=0;whiteSpace=wrap;html=1;strokeColor=inherit;" parent="S9tJWIZ2xEN-GUF81i5g-33" vertex="1">
          <mxGeometry x="371" width="79" height="32" as="geometry">
            <mxRectangle width="79" height="32" as="alternateBounds" />
          </mxGeometry>
        </mxCell>
        <mxCell id="S9tJWIZ2xEN-GUF81i5g-119" style="shape=tableRow;horizontal=0;startSize=0;swimlaneHead=0;swimlaneBody=0;top=0;left=0;bottom=0;right=0;dropTarget=0;collapsible=0;recursiveResize=0;expand=0;fontStyle=1;strokeColor=inherit;fillColor=#EAF2D3;" parent="S9tJWIZ2xEN-GUF81i5g-2" vertex="1">
          <mxGeometry y="270" width="450" height="32" as="geometry" />
        </mxCell>
        <mxCell id="S9tJWIZ2xEN-GUF81i5g-120" value="Fine-tune steps" style="connectable=0;recursiveResize=0;whiteSpace=wrap;html=1;strokeColor=#82b366;fillColor=#EAF2D3;" parent="S9tJWIZ2xEN-GUF81i5g-119" vertex="1">
          <mxGeometry width="100" height="32" as="geometry">
            <mxRectangle width="100" height="32" as="alternateBounds" />
          </mxGeometry>
        </mxCell>
        <mxCell id="S9tJWIZ2xEN-GUF81i5g-121" value="100" style="connectable=0;recursiveResize=0;whiteSpace=wrap;html=1;strokeColor=#82b366;fillColor=#EAF2D3;" parent="S9tJWIZ2xEN-GUF81i5g-119" vertex="1">
          <mxGeometry x="100" width="90" height="32" as="geometry">
            <mxRectangle width="90" height="32" as="alternateBounds" />
          </mxGeometry>
        </mxCell>
        <mxCell id="S9tJWIZ2xEN-GUF81i5g-122" style="connectable=0;recursiveResize=0;whiteSpace=wrap;html=1;strokeColor=#82b366;fillColor=#EAF2D3;" parent="S9tJWIZ2xEN-GUF81i5g-119" vertex="1">
          <mxGeometry x="190" width="91" height="32" as="geometry">
            <mxRectangle width="91" height="32" as="alternateBounds" />
          </mxGeometry>
        </mxCell>
        <mxCell id="S9tJWIZ2xEN-GUF81i5g-123" style="connectable=0;recursiveResize=0;whiteSpace=wrap;html=1;strokeColor=#82b366;fillColor=#EAF2D3;" parent="S9tJWIZ2xEN-GUF81i5g-119" vertex="1">
          <mxGeometry x="281" width="90" height="32" as="geometry">
            <mxRectangle width="90" height="32" as="alternateBounds" />
          </mxGeometry>
        </mxCell>
        <mxCell id="S9tJWIZ2xEN-GUF81i5g-124" style="connectable=0;recursiveResize=0;whiteSpace=wrap;html=1;strokeColor=#82b366;fillColor=#EAF2D3;" parent="S9tJWIZ2xEN-GUF81i5g-119" vertex="1">
          <mxGeometry x="371" width="79" height="32" as="geometry">
            <mxRectangle width="79" height="32" as="alternateBounds" />
          </mxGeometry>
        </mxCell>
        <mxCell id="S9tJWIZ2xEN-GUF81i5g-69" value="Data-parameters" style="rounded=0;whiteSpace=wrap;html=1;fillColor=#ffffff;strokeColor=#82b366;" parent="1" vertex="1">
          <mxGeometry x="200" y="145" width="120" height="105" as="geometry" />
        </mxCell>
        <mxCell id="S9tJWIZ2xEN-GUF81i5g-72" value="Fine-tuning parameters" style="rounded=0;whiteSpace=wrap;html=1;fillColor=#EAF2D3;strokeColor=#82b366;" parent="1" vertex="1">
          <mxGeometry x="200" y="252" width="120" height="160" as="geometry" />
        </mxCell>
        <mxCell id="S9tJWIZ2xEN-GUF81i5g-52" value="" style="shape=link;html=1;rounded=0;exitX=0;exitY=1;exitDx=0;exitDy=0;entryX=1;entryY=1;entryDx=0;entryDy=0;" parent="1" source="S9tJWIZ2xEN-GUF81i5g-69" target="S9tJWIZ2xEN-GUF81i5g-15" edge="1">
          <mxGeometry width="100" relative="1" as="geometry">
            <mxPoint x="700" y="140" as="sourcePoint" />
            <mxPoint x="800" y="140" as="targetPoint" />
          </mxGeometry>
        </mxCell>
        <mxCell id="S9tJWIZ2xEN-GUF81i5g-73" value="&lt;div style=&quot;font-size: 16px;&quot;&gt;&lt;font style=&quot;font-size: 16px;&quot;&gt;Frequency of data&lt;/font&gt;&lt;/div&gt;&lt;div style=&quot;font-size: 16px;&quot;&gt;=&lt;/div&gt;&lt;div&gt;&lt;i&gt;Daily&lt;/i&gt;&lt;/div&gt;&lt;div&gt;&lt;i&gt;Monthly&lt;/i&gt;&lt;/div&gt;&lt;div&gt;&lt;i&gt;Weekly&lt;/i&gt;&lt;/div&gt;&lt;div&gt;&lt;i&gt;&lt;br&gt;&lt;/i&gt;&lt;/div&gt;&lt;div&gt;&lt;i&gt;&lt;br&gt;&lt;/i&gt;&lt;/div&gt;&lt;div&gt;&lt;i&gt;&lt;br&gt;&lt;/i&gt;&lt;/div&gt;&lt;div&gt;&lt;div&gt;&lt;i&gt;Batch size = 5&lt;/i&gt;&lt;/div&gt;&lt;div&gt;&lt;i&gt;Max epochs = 4&lt;/i&gt;&lt;/div&gt;&lt;div&gt;&lt;i&gt;Fine-tuning length = 200&lt;/i&gt;&lt;/div&gt;&lt;div&gt;&lt;i&gt;Leaning rate = 5e-4&lt;/i&gt;&lt;/div&gt;&lt;/div&gt;&lt;div&gt;&lt;i&gt;Fine-tune steps = 100&lt;/i&gt;&lt;i&gt;&lt;br&gt;&lt;/i&gt;&lt;/div&gt;" style="shape=cylinder3;whiteSpace=wrap;html=1;boundedLbl=1;backgroundOutline=1;size=15;" parent="1" vertex="1">
          <mxGeometry x="415" y="530" width="140" height="300" as="geometry" />
        </mxCell>
        <mxCell id="S9tJWIZ2xEN-GUF81i5g-80" value="&lt;font style=&quot;font-size: 16px;&quot;&gt;Context length&lt;/font&gt;&lt;div style=&quot;font-size: 16px;&quot;&gt;=&lt;/div&gt;&lt;div&gt;&lt;i&gt;32&lt;/i&gt;&lt;/div&gt;&lt;div&gt;&lt;i&gt;64&lt;/i&gt;&lt;/div&gt;&lt;div&gt;&lt;i&gt;128&lt;/i&gt;&lt;/div&gt;&lt;div&gt;&lt;i&gt;&lt;br&gt;&lt;/i&gt;&lt;/div&gt;&lt;div&gt;&lt;i&gt;&lt;br&gt;&lt;/i&gt;&lt;/div&gt;&lt;div&gt;&lt;i&gt;&lt;br&gt;&lt;/i&gt;&lt;/div&gt;&lt;div&gt;&lt;div&gt;&lt;i&gt;Batch size = 5&lt;/i&gt;&lt;/div&gt;&lt;div&gt;&lt;i&gt;Max epochs = 4&lt;/i&gt;&lt;/div&gt;&lt;div&gt;&lt;i&gt;Fine-tuning length = 200&lt;/i&gt;&lt;/div&gt;&lt;div&gt;&lt;i&gt;Leaning rate = 5e-4&lt;/i&gt;&lt;/div&gt;&lt;/div&gt;&lt;div&gt;&lt;i&gt;Fine-tune steps = 100&lt;/i&gt;&lt;/div&gt;" style="shape=cylinder3;whiteSpace=wrap;html=1;boundedLbl=1;backgroundOutline=1;size=15;" parent="1" vertex="1">
          <mxGeometry x="195" y="530" width="140" height="300" as="geometry" />
        </mxCell>
        <mxCell id="S9tJWIZ2xEN-GUF81i5g-79" value="&lt;font style=&quot;font-size: 16px;&quot;&gt;Type of data&lt;/font&gt;&lt;div style=&quot;font-size: 16px;&quot;&gt;=&lt;/div&gt;&lt;div&gt;&lt;i&gt;Stock Index&lt;/i&gt;&lt;/div&gt;&lt;div&gt;&lt;i&gt;Commodity&lt;/i&gt;&lt;/div&gt;&lt;div&gt;&lt;i&gt;Exchange rate&lt;/i&gt;&lt;/div&gt;&lt;div&gt;&lt;i&gt;CHAPS&lt;/i&gt;&lt;/div&gt;&lt;div&gt;&lt;i&gt;&lt;br&gt;&lt;/i&gt;&lt;/div&gt;&lt;div&gt;&lt;i&gt;&lt;br&gt;&lt;/i&gt;&lt;/div&gt;&lt;div&gt;&lt;i&gt;&lt;br&gt;&lt;/i&gt;&lt;/div&gt;&lt;div&gt;&lt;i&gt;Batch size = 5&lt;/i&gt;&lt;/div&gt;&lt;div&gt;&lt;i&gt;Max epochs = 4&lt;/i&gt;&lt;/div&gt;&lt;div&gt;&lt;i&gt;Fine-tuning length = 200&lt;/i&gt;&lt;/div&gt;&lt;div&gt;&lt;i&gt;Leaning rate = 5e-4&lt;/i&gt;&lt;/div&gt;&lt;div&gt;&lt;i&gt;Fine-tune steps = 100&lt;/i&gt;&lt;i&gt;&lt;br&gt;&lt;/i&gt;&lt;/div&gt;&lt;div&gt;&lt;i&gt;&lt;br&gt;&lt;/i&gt;&lt;/div&gt;" style="shape=cylinder3;whiteSpace=wrap;html=1;boundedLbl=1;backgroundOutline=1;size=15;" parent="1" vertex="1">
          <mxGeometry x="630" y="530" width="140" height="300" as="geometry" />
        </mxCell>
        <mxCell id="S9tJWIZ2xEN-GUF81i5g-81" value="" style="shape=collate;whiteSpace=wrap;html=1;rotation=90;" parent="1" vertex="1">
          <mxGeometry x="350" y="620" width="60" height="52.5" as="geometry" />
        </mxCell>
        <mxCell id="S9tJWIZ2xEN-GUF81i5g-88" value="" style="rounded=0;whiteSpace=wrap;html=1;fillColor=#d80073;textOpacity=80;fillStyle=hatch;strokeColor=#A50040;fontColor=#ffffff;" parent="1" vertex="1">
          <mxGeometry x="615" y="710" width="170" height="90" as="geometry" />
        </mxCell>
        <mxCell id="S9tJWIZ2xEN-GUF81i5g-86" value="" style="shape=mxgraph.arrows2.wedgeArrowDashed2;html=1;bendable=0;startWidth=276;stepSize=15;rounded=0;" parent="1" edge="1">
          <mxGeometry width="100" height="100" relative="1" as="geometry">
            <mxPoint x="404.5" y="860" as="sourcePoint" />
            <mxPoint x="404.5" y="960" as="targetPoint" />
          </mxGeometry>
        </mxCell>
        <mxCell id="S9tJWIZ2xEN-GUF81i5g-91" value="" style="shape=collate;whiteSpace=wrap;html=1;rotation=90;" parent="1" vertex="1">
          <mxGeometry x="560" y="620" width="60" height="52.5" as="geometry" />
        </mxCell>
        <mxCell id="S9tJWIZ2xEN-GUF81i5g-92" value="" style="rounded=0;whiteSpace=wrap;html=1;fillColor=#d80073;textOpacity=80;fontColor=#ffffff;strokeColor=#A50040;fillStyle=hatch;" parent="1" vertex="1">
          <mxGeometry x="400" y="710" width="170" height="90" as="geometry" />
        </mxCell>
        <mxCell id="S9tJWIZ2xEN-GUF81i5g-93" value="" style="rounded=0;whiteSpace=wrap;html=1;fillColor=#d80073;textOpacity=80;fontColor=#ffffff;strokeColor=#A50040;fillStyle=hatch;gradientColor=none;" parent="1" vertex="1">
          <mxGeometry x="180" y="710" width="170" height="90" as="geometry" />
        </mxCell>
        <mxCell id="S9tJWIZ2xEN-GUF81i5g-95" value="&lt;br&gt;&lt;div&gt;&lt;i&gt;Type of data = Commodity&lt;/i&gt;&lt;/div&gt;&lt;div&gt;&lt;i&gt;Frequency of data = Weekly&lt;/i&gt;&lt;/div&gt;&lt;div&gt;&lt;i&gt;Context length = 32&lt;/i&gt;&lt;/div&gt;&lt;div&gt;&lt;i&gt;&lt;br&gt;&lt;/i&gt;&lt;/div&gt;&lt;div&gt;&lt;i&gt;Batch size = 5&lt;/i&gt;&lt;/div&gt;&lt;div&gt;&lt;i&gt;Max epochs = 4&lt;/i&gt;&lt;/div&gt;&lt;div&gt;&lt;i&gt;Fine-tuning length = 200&lt;/i&gt;&lt;/div&gt;&lt;div&gt;&lt;i&gt;Leaning rate = 5e-4&lt;/i&gt;&lt;/div&gt;&lt;div&gt;&lt;i&gt;&lt;br&gt;&lt;/i&gt;&lt;/div&gt;" style="shape=cylinder3;whiteSpace=wrap;html=1;boundedLbl=1;backgroundOutline=1;size=15;" parent="1" vertex="1">
          <mxGeometry x="327.5" y="970" width="155" height="190" as="geometry" />
        </mxCell>
        <mxCell id="S9tJWIZ2xEN-GUF81i5g-98" value="" style="edgeStyle=segmentEdgeStyle;endArrow=classic;html=1;curved=0;rounded=0;endSize=8;startSize=8;exitX=1;exitY=0.5;exitDx=0;exitDy=0;entryX=0.5;entryY=0;entryDx=0;entryDy=0;entryPerimeter=0;" parent="1" source="S9tJWIZ2xEN-GUF81i5g-7" target="S9tJWIZ2xEN-GUF81i5g-79" edge="1">
          <mxGeometry width="50" height="50" relative="1" as="geometry">
            <mxPoint x="780" y="243" as="sourcePoint" />
            <mxPoint x="260" y="510" as="targetPoint" />
            <Array as="points">
              <mxPoint x="880" y="163" />
              <mxPoint x="880" y="500" />
              <mxPoint x="700" y="500" />
            </Array>
          </mxGeometry>
        </mxCell>
        <mxCell id="S9tJWIZ2xEN-GUF81i5g-99" value="" style="edgeStyle=segmentEdgeStyle;endArrow=classic;html=1;curved=0;rounded=0;endSize=8;startSize=8;exitX=1;exitY=0.5;exitDx=0;exitDy=0;entryX=0.5;entryY=0;entryDx=0;entryDy=0;entryPerimeter=0;" parent="1" source="S9tJWIZ2xEN-GUF81i5g-11" target="S9tJWIZ2xEN-GUF81i5g-73" edge="1">
          <mxGeometry width="50" height="50" relative="1" as="geometry">
            <mxPoint x="810" y="251.5" as="sourcePoint" />
            <mxPoint x="310" y="538.5" as="targetPoint" />
            <Array as="points">
              <mxPoint x="860" y="197" />
              <mxPoint x="860" y="490" />
              <mxPoint x="485" y="490" />
            </Array>
          </mxGeometry>
        </mxCell>
        <mxCell id="S9tJWIZ2xEN-GUF81i5g-100" value="" style="edgeStyle=segmentEdgeStyle;endArrow=classic;html=1;curved=0;rounded=0;endSize=8;startSize=8;exitX=1;exitY=0.5;exitDx=0;exitDy=0;entryX=0.5;entryY=0;entryDx=0;entryDy=0;entryPerimeter=0;" parent="1" source="S9tJWIZ2xEN-GUF81i5g-15" target="S9tJWIZ2xEN-GUF81i5g-80" edge="1">
          <mxGeometry width="50" height="50" relative="1" as="geometry">
            <mxPoint x="780" y="287" as="sourcePoint" />
            <mxPoint x="495" y="540" as="targetPoint" />
            <Array as="points">
              <mxPoint x="840" y="231" />
              <mxPoint x="840" y="480" />
              <mxPoint x="265" y="480" />
            </Array>
          </mxGeometry>
        </mxCell>
        <mxCell id="S9tJWIZ2xEN-GUF81i5g-104" value="&lt;font style=&quot;font-size: 18px;&quot;&gt;Aggregation phase&lt;/font&gt;" style="rounded=1;whiteSpace=wrap;html=1;" parent="1" vertex="1">
          <mxGeometry x="-110" y="972.5" width="150" height="75" as="geometry" />
        </mxCell>
        <mxCell id="S9tJWIZ2xEN-GUF81i5g-105" value="" style="shape=curlyBracket;whiteSpace=wrap;html=1;rounded=1;labelPosition=left;verticalLabelPosition=middle;align=right;verticalAlign=middle;size=0.5;" parent="1" vertex="1">
          <mxGeometry x="40" y="860" width="40" height="300" as="geometry" />
        </mxCell>
        <mxCell id="S9tJWIZ2xEN-GUF81i5g-107" value="&lt;font style=&quot;font-size: 16px;&quot;&gt;Legend&lt;/font&gt;" style="rounded=1;whiteSpace=wrap;html=1;" parent="1" vertex="1">
          <mxGeometry x="-17.5" y="120" width="167.5" height="40" as="geometry" />
        </mxCell>
        <mxCell id="S9tJWIZ2xEN-GUF81i5g-108" value="" style="rounded=1;whiteSpace=wrap;html=1;" parent="1" vertex="1">
          <mxGeometry x="-17.5" y="510" width="167.5" height="40" as="geometry" />
        </mxCell>
        <mxCell id="S9tJWIZ2xEN-GUF81i5g-109" value="" style="rounded=0;whiteSpace=wrap;html=1;" parent="1" vertex="1">
          <mxGeometry x="-17.5" y="149.5" width="167.5" height="365" as="geometry" />
        </mxCell>
        <mxCell id="S9tJWIZ2xEN-GUF81i5g-114" value="Fixed parameters" style="rounded=0;whiteSpace=wrap;html=1;fillColor=#d80073;fontColor=#000000;strokeColor=#A50040;fillStyle=hatch;gradientColor=none;" parent="1" vertex="1">
          <mxGeometry x="-8.75" y="170" width="150" height="50" as="geometry" />
        </mxCell>
        <mxCell id="S9tJWIZ2xEN-GUF81i5g-115" value="Individual Data-parameter" style="shape=cylinder3;whiteSpace=wrap;html=1;boundedLbl=1;backgroundOutline=1;size=15;" parent="1" vertex="1">
          <mxGeometry x="-7.5" y="278.75" width="147.5" height="102.5" as="geometry" />
        </mxCell>
        <mxCell id="S9tJWIZ2xEN-GUF81i5g-116" value="" style="shape=collate;whiteSpace=wrap;html=1;rotation=-90;" parent="1" vertex="1">
          <mxGeometry x="7.82" y="436.25" width="30" height="33.75" as="geometry" />
        </mxCell>
        <mxCell id="S9tJWIZ2xEN-GUF81i5g-118" value="&amp;nbsp;Cross product&lt;div&gt;of patameters&lt;/div&gt;" style="text;html=1;align=center;verticalAlign=middle;resizable=0;points=[];autosize=1;strokeColor=none;fillColor=none;" parent="1" vertex="1">
          <mxGeometry x="37.82" y="430" width="100" height="40" as="geometry" />
        </mxCell>
        <mxCell id="MrMNvndgNIpwGwEJ8O85-1" value="" style="rounded=0;whiteSpace=wrap;html=1;fillColor=#d80073;fontColor=#000000;strokeColor=#A50040;fillStyle=hatch;gradientColor=none;" vertex="1" parent="1">
          <mxGeometry x="200" y="250" width="570" height="160" as="geometry" />
        </mxCell>
      </root>
    </mxGraphModel>
  </diagram>
</mxfile>
